<svg id="Layer_1" data-name="Layer 1" xmlns="http://www.w3.org/2000/svg" viewBox="0 0 489.37 228.7"><defs><style>.cls-1,.cls-2{fill:#fff;}.cls-2{font-size:44.34px;font-family:Montserrat-Regular, Montserrat;letter-spacing:0.35em;}.cls-3{letter-spacing:0.36em;}</style></defs><rect class="cls-1" x="217.27" y="55.31" width="1.82" height="140.54"/><path class="cls-1" d="M184.26,79c-.29-.56-2.19-1.35-4-1.6,1.11,1.94,2.13,3.93,3.09,6C184.5,80.58,184.4,79.22,184.26,79Z"/><path class="cls-1" d="M108.88,113.09l6.29,11c-25.39,19.72-62.12,30.32-62.12,30.32C14.59,164,17.79,148.5,17.79,148.5l-1.46-.4c-11.83,28.59,38,17.57,42.8,16.36,38.42-9.68,82.78-43.72,82.78-43.72l-31.92-9Z"/><path class="cls-1" d="M143.77,93.4c-.69-.43-1.4-.85-2.06-1.33a2.12,2.12,0,0,1-.91-2c0-.5-.1-1-.69-.86a19.94,19.94,0,0,0-2.25.66l.07.48,1.42.4c.58.17.73.45.25.93a13.67,13.67,0,0,1-.94,1.06c-.28.23-.76.55-1,.45s-.62-.6-.87-1c-.09-.13,0-.38,0-.56-.05-.38-.13-.76-.2-1.14a4,4,0,0,0-1.24.28A3.1,3.1,0,0,0,134,94.14a15.73,15.73,0,0,0,.66,3,1.1,1.1,0,0,1-.72,1.57c-.5.2-1,.39-1.49.62-.93.47-1.1,1-.74,1.92a8.71,8.71,0,0,1,.54,1.61,2.52,2.52,0,0,1-.19,1.44c-.58,1.08-1.18,1.12-1.84.09a36.41,36.41,0,0,1-2.28-4,9.74,9.74,0,0,0-4.09-4.58c-1.23-.69-2.36-1.56-3.59-2.39a1.37,1.37,0,0,0-.52,1.69,6.65,6.65,0,0,0,1.39,2.19c1,1,2.25,1.73,3.34,2.64a2.78,2.78,0,0,1,1.1,2.94c-.21.82-.65,1-1.28.45-.8-.72-1.5-1.53-2.25-2.31-1.29-1.34-2.57-2.68-3.87-4a1.32,1.32,0,0,0-2.06,0c-1.85,1.53-3.78,3-5.64,4.48a2.43,2.43,0,0,0-.71,1.17c-.08.25-.16.48-.25.7l7.23,2c.73,0,1.47.12,2.2.19a1.06,1.06,0,0,1,1,.71l11.6,3.27a6.29,6.29,0,0,1,1.41-.24,26.24,26.24,0,0,1,8.27.8c1,.25,1.85.83,1.9,1.86a8,8,0,0,0,.1.87l1.9.53a6.3,6.3,0,0,1-1.39-5.07,31.52,31.52,0,0,0,.13-3.77c0-.76-.37-1.06-1.16-.91-2,.38-4.05.69-6.06,1.1a1.28,1.28,0,0,1-1.47-.53c-1.61-2.12-1.32-4.11.87-5.59q1.8-1.22,3.66-2.34a1.83,1.83,0,0,1,.9-.2c1.52,0,3-.06,4.55-.13a3.91,3.91,0,0,0,1-.38,3.5,3.5,0,0,0-.64-1A20,20,0,0,0,143.77,93.4Zm-31.53,9.54a2.91,2.91,0,0,1-.66-.65c0-.1.27-.38.41-.58l.47-.27c.11.28.33.59.3.86S112.42,102.73,112.24,102.94Zm5.39-.19c-.37-.48-.73-1-1.23-1.59l1.07-1c.37.46,1,.87,1,1.37S118,102.32,117.63,102.75Zm24,2.16c.19-.06.49.2,1,.42a10.23,10.23,0,0,1-1.13.79s-.45-.4-.41-.54A1.05,1.05,0,0,1,141.63,104.91ZM136.18,106a3.07,3.07,0,0,1-3.26.54c-.15-.1-.35-.41-.3-.49a1.43,1.43,0,0,1,.55-.4c.07,0,.19,0,.28,0Z"/><path class="cls-1" d="M106.81,31A88.05,88.05,0,0,0,21.39,140.24l3.22,9.11c.86.25,5.52.07,8,.07.85,0,1.76,0,2.71-.1-.74-1.75-1.44-3.51-2.15-5.27a4.7,4.7,0,0,1-.18-2.21c.49-3.57,1.07-7.13,1.57-10.7a3.91,3.91,0,0,1,1.55-2.81,19.29,19.29,0,0,0,1.61-1.5l2.43,1.55c1.32.82,2.6,1.69,4,2.43a5.31,5.31,0,0,0,2.07.55,1.92,1.92,0,0,1,1.8,1.28,2.65,2.65,0,0,1,.24.72c.24,2,1.6,3.23,3.11,4.31.3.22.79.17,1.19.27a1.16,1.16,0,0,1,.61.25c1,1.36,2.22,2.71,2.34,4.48A7.06,7.06,0,0,0,56,145a236.56,236.56,0,0,0,35.52-15.27l.18-.71a3.48,3.48,0,0,0-.67-3.13,1.57,1.57,0,0,1-.15-1.83,23.17,23.17,0,0,1,5.31-6.73c.43-.42.88-.82,1.34-1.2a4.45,4.45,0,0,0,1.89-2.86,3.59,3.59,0,0,1,.08-.35l-.35-.62,4.74-5.79a7.47,7.47,0,0,1-1-.24,2.68,2.68,0,0,1-2.19-2.9c0-1.45.06-2.91.18-4.35.13-1.68.63-2,2.33-2a22.59,22.59,0,0,0,3.77-.07c1.52-.22,2-1.2,1.21-2.55a21.91,21.91,0,0,0-1.86-2.63c-.71-.92-.69-1.23.3-1.87s2.15-1.23,3.12-2a11.21,11.21,0,0,0,2.12-2.23,6.5,6.5,0,0,1,3.12-2.51c.7-.24.88-.64.65-1.29a9.73,9.73,0,0,1-.48-1.44,8.74,8.74,0,0,1-.13-1.77.64.64,0,0,1,.41-.45.65.65,0,0,1,.5.31c.3.55.55,1.14.82,1.71.56,1.13,1,2.39,2.61,2.36a4.06,4.06,0,0,0,3.89-2.53c.49-1.53.81-3.11,1.23-4.67A3.07,3.07,0,0,1,127,72.88a2,2,0,0,0,.49-.23,2,2,0,0,0-3.05-.42c-1.18,1.33-1.52,1.29-2.51-.21a4,4,0,0,1-.31-3.88,4.62,4.62,0,0,0,.29-2.26c-.11-.74-.66-.78-1.1-.13a10.9,10.9,0,0,0-1.68,5.56c0,.47.43,1,.76,1.44s.76.59,1,1a1.2,1.2,0,0,1,.12.9c-.24,1-.57,2-.84,3a13.57,13.57,0,0,1-.44,1.83c-.48,1.18-1.21,1.25-1.89.2a10.18,10.18,0,0,1-.81-1.81c-.24-.61-.38-1.27-.67-1.87s-.72-.7-1.14-.06c0,.08-.09.17-.14.24-.36.5-.63,1.32-1.38,1a3.15,3.15,0,0,1-1.63-1.27,6,6,0,0,1,1-6.67,12.58,12.58,0,0,0,1.41-1.52,6.15,6.15,0,0,0,.73-1.82c.32-1.28.47-2.61.86-3.87.82-2.61,2.48-3.6,5.16-3.07a16,16,0,0,1,6.92,3.39c.27.22.36.67.54,1a6.2,6.2,0,0,1-1.11.21c-.47,0-.94-.15-1.41-.14a1,1,0,0,0-.68.38c-.07.1.1.45.24.63.51.6,1.05,1.18,1.58,1.77.75.85,1.08.85,2,.07,1.18-1.07,1.43-2.57,1.83-4,.3-1.09.44-2.23.71-3.34.49-2,1-2.33,3.09-2-.84-2.8-3.3-4.4-4.73-6.69l.15-.19a4.51,4.51,0,0,1,.89.57c1.32,1.4,2.59,2.84,3.93,4.22a18.43,18.43,0,0,0,2,1.71,2.3,2.3,0,0,0,.77.22,3.07,3.07,0,0,0,.21-.87,3.14,3.14,0,0,0-1.58-2.56c-.86-.58-1.82-1-2.7-1.57s-1.4-1-2.1-1.57l.25-.39,3.37,1.68.13-.18-5.69-5.05c-1.88-1.66-3.78-3.31-5.59-5.09,2.78.48,5,2.25,7.56,3.19l.21-.2c-.94-1.09-1.87-2.19-3-3.5l2.23.24.12-.24a14.35,14.35,0,0,0-1.47-1c-.73-.36-1.51-.65-2.27-.95a1,1,0,0,1-.73-1.41.62.62,0,0,0,0-.31,84.63,84.63,0,0,1,45.65,29l1-1.38,1.18-1.69A87.82,87.82,0,0,0,106.81,31ZM94.93,40.56c-.81.61-1.45,1.49-2.52,1.73l-.22-.35,2.6-1.6Zm-2.06.07-1.61,1-.13-.21,1.62-1.05Zm-1-1.28.09.23-2.55.84-.09-.27Zm-2.73,5.07a3.41,3.41,0,0,1,1.2-.71c.79-.37,1.6-.72,2.4-1.08.17-.07.33-.22.51-.23A2,2,0,0,0,95.18,41c.15-.37.76-.56,1.13-.81a10.78,10.78,0,0,1,1.17.5c.7.39.76.88.06,1.27a16.18,16.18,0,0,1-2.75,1.24A13.85,13.85,0,0,0,90,45.56a.87.87,0,0,1-.77-.06C89.09,45.16,89,44.64,89.16,44.42Zm-1.81,2a1.33,1.33,0,0,1-.22,1.13c-.17.22-.77.4-.94.28a2.29,2.29,0,0,1-.7-1.12,1,1,0,0,1,.3-.76c.94-.9,1.91-1.77,2.88-2.64l.35.34L87.64,45A1,1,0,0,0,87.35,46.41Zm-4.1-2.24c0,.25-.33.53-.57.71C80.84,46.28,79,47.66,77.14,49a1.68,1.68,0,0,1-.67.33c-.52.12-.92,0-.71-.66a.78.78,0,0,0,0-.54c-.46-.62,0-.93.4-1.22,1.27-.87,2.57-1.72,3.84-2.61.17-.12.23-.4.34-.61l-.3-.43,6.16-2.51.14.26c-.6.42-1.21.83-1.79,1.27S83.3,43.24,83.25,44.17Zm.68,1.49c-1.06.58-2.13,1.15-3.2,1.72l-.12-.23,3.21-1.7Zm4.83-3.72c-.81.37-1.59.74-2.38,1.06-.1,0-.4-.17-.42-.28a.66.66,0,0,1,.21-.55c.63-.4,1.29-.75,2-1.15C88.4,41.37,88.53,41.57,88.76,41.94Zm-52,76.41-.3.1c-.2-.47-.39-.94-.65-1.57C37,117.15,37.16,117.44,36.78,118.35Zm1.66-2.56a3.58,3.58,0,0,1-1.16-.91c-1.06-1.39-1.73-3.11-3.38-4a.5.5,0,0,1-.11-.48.53.53,0,0,1,.46-.23,2.79,2.79,0,0,1,1.27.56c1.18,1.39,2.27,2.85,3.39,4.29a2.62,2.62,0,0,1,.23.51C38.9,115.62,38.58,115.87,38.44,115.79Zm1.53,3.9a1.27,1.27,0,0,1-.85-.77c-.07-.19.29-.65.56-.84,1.59-1.1,2.91-.39,3.15,1.65A27.22,27.22,0,0,1,40,119.69ZM78.72,60.11a1.1,1.1,0,0,0-1,.38c-.55.76-.93,1.64-1.49,2.39-.43.57-1.12,1.49-1.52,1.41-.85-.16-.5-1.19-.55-1.88a11.63,11.63,0,0,1,0-1.32A2.72,2.72,0,0,1,76,58.35c1.47-.72,2.6-2.14,3.86-3.27a1.1,1.1,0,0,0,.31-.68c0-.63-.06-1.26-.1-1.89a7.45,7.45,0,0,0-1.45.69c-2.9,2.29-6.31,3.57-9.67,5a26.37,26.37,0,0,0-7.37,4.22A3.84,3.84,0,0,0,60.05,66a7,7,0,0,1-1.95,5.92,8.86,8.86,0,0,0-1.21,1.8,2.76,2.76,0,0,0-.13,1,2.59,2.59,0,0,0,1-.27c1.49-1.13,2.93-2.3,4.39-3.46.28-.22.53-.47.81-.67a9,9,0,0,0,3-3.46A7.25,7.25,0,0,1,69.88,63c1-.37,1.32-.15,1.1.92-.28,1.33-.64,2.64-.93,4a3.39,3.39,0,0,0,.06.89,6.45,6.45,0,0,0,.88-.14c.43-.13.84-.32,1.45-.56a12.71,12.71,0,0,1-.13,1.53c-.69,3.37-1.42,6.74-2.09,10.12-.21,1-.28,2.06-.44,3.09a11.4,11.4,0,0,1-.34,1.76c-.24.77-.69,1.41-1.6,1.38a1.85,1.85,0,0,1-1.9-1.15,1.69,1.69,0,0,1,.83-2.11,2.9,2.9,0,0,0,.67-.53,7.34,7.34,0,0,0,.53-1,3.05,3.05,0,0,0-1.14-.25,6.94,6.94,0,0,0-1.68.62.93.93,0,0,1-1.24-.26,1.63,1.63,0,0,0-1.22-.53c-.57.13-.79.65-.68,1.35a2.94,2.94,0,0,1-.44,1.49c-.6,1.18-.6,1.27.44,2.12s1.06,1.1-.17,1.67a19.68,19.68,0,0,1-3.11,1.07c-.51.14-1,0-1-.78,0-.25-.63-.71-.87-.65a6.07,6.07,0,0,0-2.26.86c-1.93,1.38-3.79,2.84-5.63,4.33-2.63,2.13-5.2,4.34-7.83,6.47a6.12,6.12,0,0,0-2.28,3.6c-.22,1-.49,2-.81,3a7.33,7.33,0,0,1-.74,1.34l-.3-.09a1.77,1.77,0,0,1,0-.64c.2-.66.47-1.3.68-2a14.15,14.15,0,0,0,.59-2.28,2.66,2.66,0,0,0-2.45-3.09c-1.26-.16-2.52-.26-3.76-.5a1.7,1.7,0,0,0-2,.91,18.19,18.19,0,0,0-2.55,7.19,18.49,18.49,0,0,0-.19,3.49c0,.94.45,1.11,1.24.6.5-.32.95-.73,1.45-1.06.86-.57,1.44-.38,1.51.64a7.88,7.88,0,0,1-.4,2.47,4.57,4.57,0,0,1-.65,1.15,4.38,4.38,0,0,0,0,5.39c1.25,1.65.65,3.52.72,5.32a10.43,10.43,0,0,0,.32,2.22c.12.47.5.73,1,.32.7-.55,1,0,1.13.52a1.28,1.28,0,0,1,0,.75,5.79,5.79,0,0,1-.46.89c-.26-.19-.63-.33-.76-.58-1.2-2.37-2.46-4.71-3.49-7.15-1.31-3.11-2.39-6.33-3.64-9.47a14.2,14.2,0,0,1-.44-8.59c1.06-4.68,1.29-13.47,10.21-28.49C39.23,68.91,55.13,45.39,83,38c1.58-.21,3.18-.33,4.79-.42-1.5.62-3,1.21-4.5,1.87-1.09.49-2.15,1.06-3.21,1.63-.63.35-1.45.58-1.21,1.64,0,.16-.3.44-.5.63-1.14,1.06-2.29,2.09-3.42,3.15-.35.32-.67.67-1,1a2.77,2.77,0,0,0-.68,2.79,2.81,2.81,0,0,0,3,.84,17.92,17.92,0,0,0,2.93-1.71c.83-.57,1.56-1.29,2.38-1.88a11.77,11.77,0,0,1,1.62-.83l.14.25c-.25.16-.51.31-.75.49-1.59,1.14-3.19,2.26-4.76,3.43a4.73,4.73,0,0,0-1,1.11,2.83,2.83,0,0,0-.22.9c.32,0,.71,0,.94-.18.76-.56,1.48-1.18,2.2-1.8,1.08-.92,2.14-1.85,3.22-2.78l.16.17L81.89,49.4l.16.24,1.77-.88A3.35,3.35,0,0,1,83.63,52c-1.2,2.5-2.43,5-3.65,7.49C79.72,60,79.43,60.38,78.72,60.11Zm-9-.62,2.47-2C72.42,60.15,72.17,60,69.68,59.49ZM92.34,64A2.44,2.44,0,0,1,90,66.18c-.5.08-1,.15-1.51.2a1.86,1.86,0,0,0-1.81,1.38,3.1,3.1,0,0,1-3.22,2c-2.77.07-2.38,0-1.62-2.05a49.92,49.92,0,0,1,1.79-4.89,16.52,16.52,0,0,1,2.31-3.33,25.13,25.13,0,0,0,4.62-7.45,13.78,13.78,0,0,0,.59-2.48,1.05,1.05,0,0,0-.28-.9c-.58-.37-.46-.76-.21-1.2.83-1.45,1.75-2.77,3.49-3.27,1.12-.32,2.2-.81,3.32-1.11a2.1,2.1,0,0,1,1.38.22c.43.22.72.36,1.18,0a2.53,2.53,0,0,1,2.92.14c.51.41.46.83-.18,1s-1.06.39-.73,1c.12.23.77.22,1.19.24.66,0,1.31,0,2,0l.18.41-1.51,1.62c-.36.4-.78.77-.27,1.38.1.12,0,.48-.16.71-.23.5-.52,1-.76,1.47a5.89,5.89,0,0,1-.49,1.21,2.45,2.45,0,0,0-.61,2.27,1.42,1.42,0,0,1-.26,1,31.92,31.92,0,0,1-2.21,2.95c-.34.39-1,.5-1.45.79s-.9.5-1.08.88a2.39,2.39,0,0,1-2,1.45C92.88,62.09,92.67,62.32,92.34,64Zm4.92,6.23c-1.69,0-2.7-1-2.57-2.44A1.8,1.8,0,0,1,97.05,66a9.33,9.33,0,0,0,2.69,0c1.17-.17,1.54.13,1.3,1.3A3.86,3.86,0,0,1,97.26,70.2Zm4.28,15.64c-.93-.19-1.14-.62-.6-1.38a1.8,1.8,0,0,0,.38-1.66c-.08-.26.23-.66.42-1a1,1,0,0,1,.48-.29c.57-.18,1.35-.65,1.67-.44.48.31.63,1.11.92,1.71C104.52,85.16,103.41,86.21,101.54,85.84ZM109,87.12a30,30,0,0,1-3.81,1.07c-.84.17-1.05-.17-.7-1a19.14,19.14,0,0,1,.93-1.87,4.28,4.28,0,0,0,.19-3.92c-.52-1.22-1.29-2.32-1.84-3.53a1.78,1.78,0,0,1,.2-1.27c0-.11.62,0,1.21,0-.07.1,0,0,.07-.1.57-.85.92-.88,1.4,0s1.26,1.84.5,3.05c-.15.23.09.78.26,1.13.76,1.56,1.59,3.08,2.32,4.66C110.16,86.44,110,86.74,109,87.12Zm5.39-37.35c-.2.45-.42.9-.58,1.37s-.56.48-.89.22a3.67,3.67,0,0,1-1.61-2.57,1.55,1.55,0,0,1,2.27-1.68,1.13,1.13,0,0,1,.58.67c.09.33-.08.72,0,1a4.5,4.5,0,0,0,.52,1Zm4.76-7,1.47,1.87C119,44.71,118.51,44.1,119.11,42.77Zm5.74,3.82.32-.07a7.52,7.52,0,0,1,.65,1c.54,1.21,1,2.48,1.57,3.65s1.5,2.5,2.28,3.79a3,3,0,0,1-2.93-1.51,13,13,0,0,1-1.95-5.28A11,11,0,0,1,124.85,46.59Z"/><path class="cls-1" d="M180.81,68.23l-.71,1s20.4.92,8.68,21.13c-2.32,4-24.52,37.51-99,70.56l36.37,10.33.71-1c-1.84-3.37-5.76-10.35-5.7-10.38,17.14-9.14,45-25.72,62.47-45C187,111.2,226.76,70.33,180.81,68.23Z"/><path class="cls-1" d="M194.71,114.62h0q-2.15,2.53-4.59,5.17l-.47.52c-15.62,17.25-38.71,32.25-57.5,42.77l1.83,3.31,2.38,4.38-6.85,9.83L80.72,166.74a149.34,149.34,0,0,1-19.38,6.47,127.81,127.81,0,0,1-21.21,3.21A88,88,0,0,0,194.82,119C194.82,117.53,194.79,116.07,194.71,114.62Z"/><text class="cls-2" transform="translate(235.45 182.92)">T<tspan class="cls-3" x="40.93" y="0">OURS</tspan></text><path class="cls-1" d="M341.61,137.29h-20.9v-44l-20.65,44H276.88l-20.65-44v44H235.45V51.14h23.06l30,63.22,29.9-63.22h23.18Z"/><path class="cls-1" d="M374,99.94H346.14V88.5H374Z"/><path class="cls-1" d="M452.09,83.45c0,12.41-6.08,22.93-15.33,27.87l17.74,26H428.65l-12.92-21.41h-15.2v21.41H379.75V51.14h41.68C438.92,51.14,452.09,64.7,452.09,83.45Zm-51.56-13V96.62h17.86a13.12,13.12,0,0,0,.13-26.22Z"/></svg>