<?xml version="1.0" encoding="utf-8"?>
<!-- Generator: Adobe Illustrator 25.2.0, SVG Export Plug-In . SVG Version: 6.00 Build 0)  -->
<svg version="1.1" id="Layer_1" xmlns="http://www.w3.org/2000/svg" xmlns:xlink="http://www.w3.org/1999/xlink" x="0px" y="0px"
	 viewBox="0 0 934.5 410.25" style="enable-background:new 0 0 934.5 410.25;" xml:space="preserve">
<style type="text/css">
	.st0{fill:#FFFFFF;}
	.st1{font-family:'Montserrat-Regular';}
	.st2{font-size:80.5873px;}
	.st3{letter-spacing:28;}
</style>
<g>
	<g>
		<rect x="435.92" y="109.63" class="st0" width="3.3" height="255.41"/>
	</g>
	<g>
		<g>
			<path class="st0" d="M375.94,152.6c-0.54-1.01-3.99-2.46-7.31-2.9c2.01,3.52,3.88,7.13,5.61,10.82
				C376.37,155.56,376.19,153.08,375.94,152.6z"/>
			<path class="st0" d="M238.95,214.64l11.42,19.94c-46.14,35.84-112.89,55.1-112.89,55.1c-69.89,17.47-64.08-10.69-64.08-10.69
				l-2.65-0.73c-21.5,51.97,69.02,31.94,77.79,29.73c69.82-17.58,150.44-79.46,150.44-79.46l-58.01-16.35L238.95,214.64z"/>
			<path class="st0" d="M302.36,178.85c-1.27-0.78-2.55-1.54-3.75-2.42c-1.17-0.86-1.79-2.07-1.66-3.59
				c0.08-0.91-0.18-1.77-1.26-1.57c-1.39,0.25-2.72,0.78-4.08,1.19c0.04,0.29,0.08,0.58,0.12,0.88c0.86,0.24,1.73,0.47,2.58,0.73
				c1.05,0.31,1.33,0.82,0.45,1.7c-0.6,0.61-1.06,1.38-1.71,1.92c-0.51,0.42-1.37,0.99-1.79,0.82c-0.66-0.28-1.14-1.09-1.59-1.75
				c-0.16-0.23,0.05-0.67,0.01-1.01c-0.09-0.69-0.24-1.38-0.37-2.07c-0.76,0.15-1.64,0.12-2.26,0.5c-2.24,1.38-2.74,3.62-2.44,6.02
				c0.23,1.81,0.65,3.63,1.2,5.37c0.47,1.49,0.02,2.31-1.31,2.85c-0.9,0.37-1.83,0.7-2.7,1.14c-1.69,0.84-2,1.71-1.35,3.48
				c0.36,0.97,0.85,1.93,0.99,2.93c0.12,0.85,0.05,1.88-0.34,2.61c-1.05,1.97-2.14,2.05-3.35,0.17c-1.51-2.36-2.95-4.8-4.14-7.34
				c-1.66-3.56-3.99-6.36-7.44-8.32c-2.23-1.26-4.29-2.85-6.52-4.36c-1.01,0.74-1.44,1.93-0.95,3.08c0.62,1.43,1.42,2.92,2.53,3.97
				c1.87,1.77,4.09,3.16,6.07,4.81c1.63,1.36,2.57,3.1,2,5.33c-0.38,1.5-1.19,1.84-2.33,0.82c-1.45-1.3-2.73-2.78-4.08-4.19
				c-2.35-2.44-4.69-4.88-7.05-7.31c-1.2-1.23-2.34-1.23-3.73-0.08c-3.37,2.78-6.88,5.38-10.26,8.15c-0.61,0.5-1.05,1.36-1.29,2.13
				c-0.14,0.44-0.29,0.86-0.46,1.27l13.14,3.7c1.33,0.02,2.68,0.22,4.01,0.34c0.92,0.08,1.51,0.56,1.79,1.29l21.08,5.94
				c0.81-0.23,1.66-0.37,2.56-0.43c5.08-0.33,10.1,0.18,15.04,1.44c1.85,0.47,3.35,1.51,3.45,3.39c0.03,0.54,0.09,1.06,0.18,1.57
				l3.45,0.97c-2.19-2.66-2.97-5.71-2.53-9.22c0.29-2.26,0.22-4.57,0.24-6.85c0.01-1.39-0.67-1.93-2.11-1.66
				c-3.67,0.7-7.36,1.26-11.02,2.01c-1.2,0.25-1.96-0.04-2.67-0.97c-2.93-3.85-2.4-7.46,1.59-10.15c2.18-1.47,4.4-2.89,6.64-4.26
				c0.45-0.28,1.09-0.33,1.64-0.35c2.76-0.1,5.52-0.11,8.27-0.25c0.63-0.03,1.24-0.45,1.86-0.69c-0.37-0.59-0.63-1.35-1.15-1.74
				C304.59,180.04,303.43,179.51,302.36,178.85z M245.04,196.19c-0.41-0.39-0.93-0.72-1.18-1.2c-0.09-0.17,0.48-0.68,0.74-1.04
				c0.28-0.17,0.56-0.34,0.85-0.5c0.2,0.52,0.6,1.07,0.55,1.57C245.95,195.44,245.38,195.8,245.04,196.19z M254.85,195.83
				c-0.67-0.86-1.34-1.73-2.24-2.89c0.85-0.83,1.39-1.37,1.93-1.9c0.68,0.82,1.77,1.58,1.92,2.49
				C256.57,194.2,255.43,195.06,254.85,195.83z M298.46,199.77c0.35-0.12,0.89,0.35,1.78,0.76c-0.92,0.68-1.45,1.13-2.06,1.45
				c-0.07,0.04-0.82-0.74-0.75-1C297.58,200.5,298.02,199.92,298.46,199.77z M288.56,201.74c-1.51,1.46-4.55,1.88-5.93,0.97
				c-0.28-0.18-0.63-0.75-0.54-0.89c0.2-0.33,0.63-0.53,1-0.72c0.12-0.07,0.33,0.04,0.5,0.06
				C285.16,201.33,286.72,201.52,288.56,201.74z"/>
			<path class="st0" d="M235.19,65.43c-88.33,0-159.94,71.61-159.94,159.94c0,13.31,1.64,26.23,4.7,38.59l5.85,16.57
				c1.56,0.45,10.03,0.12,14.5,0.12c1.55,0,3.19-0.06,4.93-0.18c-1.34-3.17-2.62-6.37-3.9-9.57c-0.48-1.2-0.51-2.72-0.33-4.03
				c0.88-6.49,1.94-12.95,2.85-19.44c0.3-2.1,1.05-3.82,2.81-5.11c1-0.73,1.82-1.69,2.93-2.73c1.36,0.87,2.88,1.86,4.42,2.83
				c2.38,1.49,4.73,3.07,7.2,4.41c1.11,0.6,2.47,0.92,3.75,1c1.68,0.11,2.66,0.89,3.29,2.33c0.18,0.42,0.37,0.86,0.43,1.31
				c0.43,3.66,2.91,5.87,5.65,7.84c0.55,0.4,1.44,0.31,2.17,0.49c0.39,0.1,0.9,0.18,1.11,0.45c1.88,2.47,4.03,4.92,4.25,8.14
				c0.11,1.57,0.43,2.96,0.93,4.2c13.32-4.48,38.97-13.92,64.55-27.76c0.11-0.43,0.21-0.86,0.33-1.28c0.56-2.1,0.05-4.03-1.21-5.69
				c-0.86-1.13-0.85-2.09-0.28-3.32c2.25-4.86,5.89-8.59,9.65-12.24c0.78-0.76,1.61-1.48,2.45-2.18c1.66-1.39,3.03-2.7,3.43-5.2
				c0.04-0.22,0.09-0.43,0.15-0.64l-0.64-1.11l8.61-10.53c-0.62-0.1-1.25-0.24-1.91-0.44c-2.76-0.83-4.02-2.41-3.99-5.27
				c0.03-2.64,0.11-5.28,0.33-7.91c0.25-3.04,1.15-3.67,4.24-3.57c2.28,0.07,4.6,0.18,6.85-0.14c2.77-0.39,3.57-2.18,2.2-4.63
				c-0.95-1.69-2.17-3.24-3.36-4.77c-1.3-1.66-1.27-2.23,0.55-3.39c1.89-1.21,3.91-2.24,5.66-3.62c1.46-1.14,2.77-2.56,3.86-4.06
				c1.5-2.07,3.26-3.73,5.67-4.56c1.27-0.44,1.59-1.16,1.17-2.35c-0.31-0.87-0.7-1.72-0.87-2.61c-0.2-1.05-0.24-2.15-0.22-3.22
				c0-0.29,0.44-0.76,0.73-0.81c0.27-0.05,0.75,0.28,0.91,0.57c0.55,1,1,2.07,1.5,3.1c1.01,2.06,1.81,4.35,4.74,4.29
				c3.19-0.06,6.18-1.86,7.06-4.59c0.89-2.78,1.48-5.66,2.24-8.49c0.66-2.47,2.07-4.2,4.76-4.6c0.31-0.05,0.6-0.27,0.89-0.41
				c-0.91-1.89-4.19-2.29-5.55-0.77c-2.14,2.41-2.77,2.33-4.56-0.39c-1.49-2.27-1.54-4.54-0.57-7.05c0.49-1.26,0.74-2.79,0.54-4.11
				c-0.2-1.35-1.21-1.41-2-0.24c-2.04,3.05-2.86,6.52-3.05,10.1c-0.05,0.86,0.77,1.83,1.37,2.62c0.51,0.67,1.38,1.07,1.89,1.74
				c0.29,0.39,0.35,1.12,0.23,1.63c-0.44,1.82-1.03,3.6-1.53,5.4c-0.3,1.1-0.38,2.29-0.8,3.33c-0.87,2.13-2.21,2.27-3.43,0.35
				c-0.64-1-1.04-2.16-1.48-3.28c-0.44-1.12-0.7-2.32-1.22-3.4c-0.52-1.07-1.31-1.28-2.06-0.12c-0.09,0.14-0.17,0.3-0.27,0.44
				c-0.66,0.9-1.13,2.39-2.5,1.9c-1.13-0.41-2.4-1.29-2.96-2.31c-2.08-3.77-1.22-8.99,1.72-12.12c0.86-0.92,1.89-1.73,2.57-2.77
				c0.64-0.98,1.04-2.16,1.33-3.31c0.59-2.32,0.85-4.74,1.57-7.02c1.48-4.75,4.5-6.55,9.37-5.59c4.71,0.93,8.85,3.18,12.58,6.16
				c0.5,0.4,0.66,1.22,0.98,1.85c-0.67,0.14-1.35,0.38-2.02,0.38c-0.85,0.01-1.71-0.27-2.56-0.25c-0.43,0.01-0.99,0.33-1.23,0.68
				c-0.13,0.2,0.18,0.83,0.44,1.15c0.92,1.1,1.9,2.14,2.85,3.22c1.37,1.54,1.98,1.55,3.55,0.13c2.16-1.94,2.61-4.67,3.33-7.25
				c0.55-1.99,0.8-4.06,1.29-6.07c0.9-3.66,1.77-4.24,5.62-3.73c-1.52-5.09-6-8-8.6-12.16c0.09-0.11,0.19-0.22,0.28-0.34
				c0.54,0.34,1.18,0.58,1.61,1.03c2.4,2.54,4.71,5.16,7.14,7.67c1.11,1.15,2.4,2.12,3.67,3.1c0.36,0.28,0.93,0.28,1.41,0.41
				c0.13-0.53,0.39-1.06,0.38-1.58c-0.05-2.08-1.23-3.57-2.87-4.66c-1.57-1.05-3.32-1.83-4.91-2.86c-1.33-0.86-2.55-1.89-3.83-2.84
				c0.16-0.24,0.31-0.47,0.47-0.71c2.04,1.02,4.08,2.04,6.12,3.05c0.08-0.11,0.15-0.22,0.23-0.33c-3.44-3.06-6.88-6.13-10.34-9.17
				c-3.42-3.02-6.87-6.01-10.16-9.26c5.05,0.87,9.09,4.09,13.74,5.8c0.13-0.12,0.25-0.24,0.37-0.36c-1.7-1.99-3.4-3.97-5.44-6.35
				c1.66,0.17,2.86,0.3,4.05,0.42c0.08-0.14,0.15-0.28,0.23-0.42c-0.89-0.6-1.73-1.29-2.68-1.77c-1.33-0.67-2.74-1.18-4.13-1.74
				c-1.19-0.48-1.74-1.2-1.32-2.56c0.04-0.14-0.01-0.34-0.09-0.55c33.17,8.1,62.14,27.01,82.97,52.76l1.79-2.52l2.14-3.07
				C329.14,88.03,284.81,65.43,235.19,65.43z M213.59,82.82c-1.48,1.12-2.64,2.71-4.57,3.15c-0.14-0.21-0.28-0.43-0.41-0.64
				c1.57-0.97,3.15-1.94,4.72-2.9C213.42,82.55,213.5,82.69,213.59,82.82z M209.85,82.96c-0.97,0.58-1.95,1.16-2.92,1.74
				c-0.08-0.13-0.16-0.26-0.25-0.39c0.99-0.64,1.97-1.27,2.96-1.91C209.71,82.59,209.78,82.77,209.85,82.96z M208.07,80.62
				c0.05,0.14,0.1,0.28,0.15,0.42c-1.54,0.51-3.08,1.02-4.62,1.54c-0.06-0.17-0.11-0.34-0.17-0.51
				C204.98,81.58,206.52,81.1,208.07,80.62z M203.11,89.84c0.5-0.62,1.4-0.93,2.17-1.29c1.44-0.68,2.91-1.31,4.36-1.96
				c0.31-0.14,0.61-0.41,0.93-0.43c1.68-0.11,2.79-0.79,3.46-2.46c0.28-0.69,1.39-1.03,2.06-1.49c0.87,0.37,1.53,0.57,2.13,0.91
				c1.27,0.72,1.38,1.6,0.12,2.32c-1.58,0.9-3.28,1.64-5,2.25c-3.09,1.08-6.23,2-8.79,4.22c-0.26,0.23-1.34,0.07-1.4-0.1
				C202.97,91.18,202.78,90.24,203.11,89.84z M199.82,93.46c0.27,0.49-0.02,1.53-0.41,2.05c-0.3,0.4-1.4,0.73-1.71,0.5
				c-0.6-0.45-1.03-1.27-1.27-2.02c-0.12-0.37,0.2-1.06,0.54-1.38c1.71-1.64,3.49-3.21,5.24-4.81c0.21,0.21,0.42,0.42,0.63,0.63
				c-0.83,0.82-1.66,1.65-2.5,2.47C199.59,91.63,199.2,92.32,199.82,93.46z M192.36,89.37c-0.03,0.46-0.6,0.97-1.04,1.3
				c-3.33,2.54-6.69,5.05-10.05,7.55c-0.36,0.27-0.79,0.5-1.23,0.6c-0.95,0.21-1.66,0.08-1.29-1.21c0.09-0.31,0.19-0.77,0.04-0.98
				c-0.83-1.12-0.04-1.69,0.72-2.22c2.32-1.59,4.67-3.13,6.98-4.74c0.31-0.22,0.41-0.74,0.61-1.12c-0.18-0.26-0.36-0.52-0.54-0.78
				c3.74-1.52,7.47-3.04,11.21-4.57c0.08,0.16,0.17,0.31,0.25,0.47c-1.09,0.77-2.2,1.51-3.26,2.32
				C193.64,86.88,192.46,87.69,192.36,89.37z M193.6,92.09c-1.94,1.04-3.88,2.08-5.82,3.12c-0.08-0.14-0.15-0.29-0.23-0.43
				c1.94-1.03,3.89-2.05,5.83-3.08C193.46,91.84,193.53,91.96,193.6,92.09z M202.37,85.33c-1.47,0.66-2.88,1.33-4.33,1.92
				c-0.17,0.07-0.73-0.3-0.75-0.51c-0.04-0.32,0.12-0.84,0.37-1c1.15-0.72,2.36-1.35,3.67-2.08
				C201.73,84.3,201.95,84.66,202.37,85.33z M107.9,224.19c-0.18,0.06-0.36,0.13-0.54,0.19c-0.36-0.86-0.72-1.71-1.19-2.84
				C108.35,222.02,108.6,222.53,107.9,224.19z M110.94,219.54c-0.78-0.43-1.59-0.96-2.12-1.65c-1.93-2.53-3.13-5.65-6.14-7.28
				c-0.19-0.1-0.3-0.67-0.19-0.88c0.12-0.23,0.6-0.48,0.83-0.41c0.81,0.25,1.82,0.43,2.31,1c2.14,2.53,4.14,5.19,6.17,7.8
				c0.14,0.17,0.19,0.42,0.41,0.93C111.76,219.24,111.19,219.68,110.94,219.54z M113.7,226.63c-0.59-0.06-1.32-0.8-1.54-1.4
				c-0.13-0.35,0.53-1.18,1.02-1.52c2.89-2,5.28-0.71,5.72,2.99C117.17,226.69,115.42,226.81,113.7,226.63z M184.13,118.36
				c-0.45-0.17-1.42,0.23-1.74,0.68c-1,1.39-1.69,2.99-2.71,4.36c-0.77,1.04-2.03,2.71-2.77,2.56c-1.55-0.3-0.9-2.17-0.99-3.42
				c-0.06-0.8,0.02-1.61,0.03-2.41c0.03-2.34,0.82-3.77,3.24-4.97c2.67-1.32,4.73-3.89,7.02-5.96c0.31-0.28,0.56-0.81,0.56-1.23
				c0.02-1.14-0.11-2.28-0.18-3.43c-0.88,0.41-1.88,0.67-2.62,1.25c-5.28,4.15-11.48,6.49-17.58,9.01
				c-4.8,1.99-9.42,4.23-13.39,7.68c-2.03,1.76-3.13,3.78-2.78,6.48c0.54,4.16-0.73,7.68-3.54,10.75c-0.88,0.96-1.59,2.12-2.21,3.27
				c-0.28,0.53-0.17,1.27-0.24,1.92c0.62-0.16,1.36-0.14,1.83-0.5c2.7-2.05,5.33-4.19,7.98-6.3c0.49-0.39,0.95-0.84,1.46-1.21
				c2.33-1.65,4.11-3.66,5.4-6.3c1.52-3.12,3.71-5.83,7.18-7.1c1.86-0.68,2.39-0.27,1.99,1.67c-0.5,2.42-1.16,4.8-1.69,7.22
				c-0.11,0.51,0.07,1.08,0.11,1.62c0.53-0.08,1.09-0.09,1.59-0.25c0.78-0.24,1.53-0.58,2.64-1.01c-0.1,1.22-0.07,2.01-0.23,2.77
				c-1.26,6.13-2.58,12.25-3.81,18.39c-0.37,1.85-0.5,3.75-0.78,5.63c-0.16,1.08-0.31,2.17-0.63,3.2c-0.43,1.39-1.24,2.56-2.9,2.5
				c-1.49-0.05-2.91-0.5-3.47-2.09c-0.57-1.64,0.12-2.9,1.51-3.84c0.43-0.29,0.92-0.56,1.21-0.95c0.41-0.55,0.66-1.21,0.97-1.83
				c-0.7-0.17-1.43-0.56-2.08-0.44c-1.05,0.19-2.07,0.65-3.05,1.12c-0.93,0.44-1.51,0.3-2.25-0.46c-0.54-0.56-1.58-1.13-2.22-0.97
				c-1.03,0.25-1.43,1.19-1.24,2.46c0.12,0.85-0.38,1.86-0.8,2.69c-1.09,2.16-1.09,2.32,0.8,3.87c1.91,1.55,1.93,1.99-0.31,3.02
				c-1.8,0.83-3.73,1.45-5.65,1.96c-0.93,0.25-1.74-0.07-1.84-1.42c-0.03-0.46-1.14-1.29-1.58-1.19c-1.42,0.32-2.94,0.74-4.1,1.57
				c-3.5,2.5-6.89,5.16-10.24,7.87c-4.78,3.87-9.44,7.88-14.22,11.75c-2.15,1.74-3.57,3.82-4.15,6.54
				c-0.39,1.85-0.89,3.69-1.47,5.49c-0.28,0.86-0.89,1.62-1.34,2.43c-0.18-0.05-0.37-0.1-0.55-0.15c-0.04-0.39-0.2-0.82-0.09-1.16
				c0.37-1.21,0.87-2.37,1.23-3.58c0.42-1.37,0.91-2.74,1.08-4.15c0.35-3.03-1.48-5.24-4.46-5.62c-2.28-0.29-4.58-0.48-6.83-0.91
				c-1.7-0.33-2.71,0.32-3.58,1.66c-2.6,3.99-3.88,8.45-4.63,13.06c-0.34,2.08-0.4,4.23-0.33,6.35c0.05,1.71,0.81,2.01,2.24,1.09
				c0.92-0.59,1.74-1.33,2.64-1.93c1.56-1.03,2.61-0.69,2.74,1.16c0.11,1.48-0.34,3.02-0.72,4.49c-0.19,0.75-0.76,1.41-1.19,2.09
				c-2.06,3.28-2.37,6.56,0.07,9.79c2.26,3,1.16,6.41,1.3,9.67c0.06,1.35,0.23,2.73,0.58,4.03c0.23,0.85,0.91,1.33,1.85,0.58
				c1.27-1,1.73-0.05,2.06,0.95c0.13,0.41,0.12,0.94-0.02,1.36c-0.19,0.57-0.55,1.07-0.84,1.61c-0.47-0.35-1.15-0.59-1.38-1.05
				c-2.17-4.3-4.47-8.56-6.34-12.99c-2.39-5.66-4.34-11.5-6.63-17.2c-2.06-5.14-1.96-10.46-0.8-15.61
				c1.92-8.51,2.35-24.48,18.56-51.77c7.55-10.23,36.43-52.97,87.15-66.4c2.87-0.38,5.78-0.59,8.69-0.75
				c-2.73,1.12-5.48,2.19-8.17,3.39c-1.99,0.89-3.92,1.93-5.83,2.97c-1.15,0.63-2.64,1.04-2.2,2.97c0.07,0.3-0.55,0.81-0.92,1.15
				c-2.06,1.92-4.15,3.8-6.21,5.72c-0.63,0.59-1.22,1.22-1.79,1.86c-1.38,1.57-1.94,3.89-1.24,5.06c0.78,1.31,3.64,2.31,5.48,1.53
				c1.87-0.8,3.62-1.96,5.31-3.12c1.51-1.03,2.84-2.35,4.33-3.41c0.89-0.63,1.96-1.02,2.95-1.52c0.08,0.15,0.16,0.3,0.24,0.45
				c-0.45,0.3-0.92,0.58-1.35,0.89c-2.89,2.07-5.8,4.12-8.65,6.24c-0.73,0.54-1.36,1.26-1.87,2.01c-0.3,0.43-0.28,1.09-0.4,1.64
				c0.57-0.1,1.28-0.03,1.7-0.34c1.39-1.01,2.69-2.15,4-3.27c1.96-1.67,3.9-3.37,5.84-5.06c0.1,0.1,0.2,0.21,0.3,0.31
				c-0.77,0.65-1.53,1.31-2.3,1.96c0.1,0.14,0.21,0.29,0.31,0.43c1.08-0.53,2.16-1.07,3.21-1.59c1.13,2.09,0.55,4.03-0.35,5.9
				c-2.18,4.56-4.41,9.09-6.64,13.63C185.96,118.2,185.42,118.84,184.13,118.36z M167.71,117.23c1.61-1.3,2.91-2.35,4.49-3.62
				C172.69,118.42,172.22,118.08,167.71,117.23z M208.89,125.36c-0.49,2.47-1.66,3.59-4.27,4.02c-0.91,0.15-1.82,0.28-2.73,0.35
				c-1.64,0.14-2.75,0.84-3.3,2.51c-0.91,2.77-3.25,3.62-5.85,3.68c-5.04,0.13-4.31,0.07-2.95-3.73c1.07-2.97,1.9-6.05,3.26-8.88
				c1.05-2.18,2.62-4.17,4.2-6.04c3.47-4.12,6.51-8.47,8.39-13.55c0.53-1.44,0.82-2.98,1.07-4.5c0.09-0.53-0.13-1.4-0.51-1.64
				c-1.06-0.66-0.84-1.37-0.38-2.18c1.5-2.63,3.17-5.04,6.35-5.93c2.04-0.58,3.99-1.48,6.04-2.03c0.76-0.2,1.78,0.02,2.5,0.4
				c0.79,0.41,1.32,0.66,2.15,0.08c1.54-1.08,3.89-0.9,5.31,0.26c0.92,0.75,0.83,1.51-0.33,1.85c-1.01,0.29-1.93,0.69-1.33,1.81
				c0.22,0.42,1.41,0.4,2.16,0.44c1.19,0.07,2.39,0.02,3.59,0.02c0.11,0.25,0.22,0.5,0.32,0.75c-0.91,0.98-1.83,1.95-2.74,2.93
				c-0.67,0.73-1.42,1.4-0.5,2.52c0.17,0.21-0.1,0.88-0.28,1.28c-0.42,0.91-0.96,1.77-1.38,2.67c-0.34,0.72-0.43,1.6-0.89,2.21
				c-0.96,1.25-1.57,2.47-1.12,4.12c0.14,0.51-0.14,1.28-0.47,1.76c-1.27,1.84-2.53,3.7-4,5.37c-0.62,0.7-1.78,0.9-2.64,1.43
				c-0.72,0.45-1.63,0.91-1.96,1.6c-0.78,1.66-1.98,2.4-3.73,2.62C209.87,121.95,209.48,122.37,208.89,125.36z M217.83,136.68
				c-3.08,0.01-4.91-1.73-4.67-4.44c0.23-2.47,1.84-3.51,4.28-3.13c1.59,0.25,3.29,0.21,4.89-0.02c2.12-0.31,2.79,0.23,2.36,2.36
				C224.1,134.39,221.11,136.67,217.83,136.68z M225.6,165.1c-1.68-0.33-2.07-1.13-1.09-2.5c0.67-0.94,1.02-1.8,0.68-3.01
				c-0.13-0.48,0.43-1.2,0.78-1.74c0.16-0.26,0.55-0.41,0.87-0.51c1.03-0.34,2.44-1.19,3.04-0.8c0.86,0.56,1.14,2.02,1.67,3.1
				C231.02,163.87,229.01,165.78,225.6,165.1z M239.09,167.43c-2.26,0.79-4.58,1.47-6.92,1.95c-1.53,0.31-1.9-0.31-1.27-1.77
				c0.5-1.16,1.07-2.29,1.69-3.39c1.32-2.33,1.34-4.78,0.35-7.13c-0.94-2.21-2.35-4.22-3.34-6.41c-0.28-0.62,0.04-1.62,0.36-2.32
				c0.09-0.2,1.13,0.03,2.2,0.09c-0.13,0.17,0.01,0,0.14-0.19c1.02-1.55,1.67-1.59,2.54-0.01c0.94,1.71,2.29,3.36,0.91,5.55
				c-0.27,0.42,0.18,1.42,0.48,2.05c1.37,2.83,2.89,5.6,4.21,8.46C241.28,166.19,241.05,166.74,239.09,167.43z M248.87,99.55
				c-0.35,0.83-0.75,1.64-1.05,2.49c-0.36,0.98-1,0.88-1.61,0.41c-1.55-1.18-2.73-2.67-2.93-4.68c-0.25-2.55,1.78-4.04,4.14-3.05
				c0.45,0.19,0.91,0.75,1.05,1.23c0.16,0.59-0.15,1.31,0,1.9c0.16,0.62,0.62,1.17,0.95,1.74
				C249.23,99.58,249.05,99.57,248.87,99.55z M257.52,86.83c0.97,1.24,1.83,2.32,2.68,3.41C257.25,90.37,256.45,89.26,257.52,86.83z
				 M267.97,93.78c0.19-0.05,0.38-0.09,0.58-0.14c0.4,0.63,0.88,1.22,1.18,1.9c0.97,2.2,1.74,4.5,2.85,6.63
				c1.22,2.35,2.73,4.56,4.15,6.89c-2.2,0.12-4.06-0.61-5.33-2.73c-1.79-2.98-3.14-6.12-3.54-9.59
				C267.74,95.76,267.92,94.77,267.97,93.78z"/>
		</g>
		<path class="st0" d="M369.66,133.1l-1.28,1.84c0,0,37.07,1.68,15.76,38.4c-4.22,7.27-44.55,68.16-179.86,128.23l66.1,18.77
			l1.28-1.84c-3.33-6.12-10.46-18.8-10.35-18.86c31.14-16.61,81.83-46.75,113.53-81.75C380.92,211.19,453.17,136.92,369.66,133.1z"
			/>
		<path class="st0" d="M394.93,217.4C394.93,217.4,394.93,217.4,394.93,217.4c-2.61,3.08-5.39,6.21-8.35,9.4
			c-0.37,0.4-0.66,0.71-0.87,0.94c-28.39,31.35-70.35,58.61-104.48,77.73c1.24,2.23,2.41,4.36,3.31,6.01l4.34,7.97l-12.45,17.86
			l-88.67-25.18c-11.72,4.75-23.59,8.81-35.23,11.75c-0.86,0.22-18.85,4.69-38.53,5.85c29.33,34.03,72.73,55.59,121.18,55.59
			c88.33,0,159.94-71.61,159.94-159.94C395.13,222.7,395.06,220.05,394.93,217.4z"/>
	</g>
	<text transform="matrix(1 0 0 1 468.9658 341.5362)" class="st0 st1 st2 st3">TOURS</text>
	<g>
		<path class="st0" d="M661.9,258.61h-37.99v-79.89l-37.53,79.89h-42.13l-37.53-79.89v79.89h-37.76V102.05h41.9l54.57,114.89
			l54.34-114.89h42.13V258.61z"/>
		<path class="st0" d="M720.71,190.73h-50.58v-20.79h50.58V190.73z"/>
		<path class="st0" d="M862.67,160.76c0,22.56-11.05,41.67-27.86,50.65l32.23,47.2h-46.97L796.6,219.7h-27.63v38.91h-37.76V102.05
			h75.75C838.73,102.05,862.67,126.69,862.67,160.76z M768.97,137.05v47.66h32.46c12.89,0,23.25-10.82,23.25-23.94
			c0-12.89-10.36-23.71-23.02-23.71H768.97z"/>
	</g>
</g>
</svg>
